<svg xmlns="http://www.w3.org/2000/svg" viewBox="0 0 32 32" fill="none">
  <rect width="32" height="32" rx="6" fill="#228be6"/>
  <path d="M4 22h2v-6h4v-4H6V9h6v3h4V9h6v3h4V9h2v4h-4v4h4v6h2" stroke="none"/>
  <g transform="translate(3, 8)">
    <rect x="0" y="0" width="26" height="16" rx="3" fill="white" opacity="0.15"/>
    <path d="M2 12h3.5c0-1.4 1.1-2.5 2.5-2.5s2.5 1.1 2.5 2.5h5c0-1.4 1.1-2.5 2.5-2.5s2.5 1.1 2.5 2.5H24v-4l-4-5h-4V1H2v11z" fill="white"/>
    <rect x="16" y="4" width="3.5" height="3.5" rx="0.5" fill="#228be6"/>
    <circle cx="8" cy="12" r="1.7" fill="#228be6"/>
    <circle cx="20.5" cy="12" r="1.7" fill="#228be6"/>
  </g>
</svg>
